; OM File Header - Saved 2011/10/23 1:10:54
; (6.050101 :patc (om-make-point 10 10) (om-make-point 50 50) (om-make-point 954 532) "" 183 0 "2011/10/23 0:11:40" "2011/10/23 0:18:58")
; End File Header
(in-package :om)(load-lib-for (quote nil))(setf *om-current-persistent* (om-load-patch1 "02-pixmap-2" (quote ((om-load-boxcomment "comment" (om-make-point 138 30) (quote "A [3x3] bitmap ") nil (om-make-point 671 233) nil (om-make-color 0 0 0) (om-make-font "Verdana" 12 :family "Verdana" :style (quote (:italic)) :mode (quote nil))) (om-load-boxcall (quote bastype) "list" (quote list) (quote nil) (om-make-point 704 274) (om-make-point 58 56) (list (list 1 0 1) (list 0 1 0) (list 0 0 1)) "((1 0 1)$(0 1 0)$(0 0 1))" nil) (om-load-editor-box1 "PICTURE 4" (quote picture) (quote ((om-load-inputfun (quote input-funbox) "object" "SELF" nil) (om-load-inputfun (quote input-funbox) "main background: external picture pathname or RGB array" "BACKGROUND" nil) (om-load-inputfun (quote input-funbox) "list of vectorial graphics" "GRAPHICS" nil))) (om-make-point 649 342) (om-make-point 165 81) (make-instance (quote picture) :name "internal pixel array" :source (quote nil) :pict-pathname (restore-pict-path (restore-path nil)) :thepict (om-get-picture "internal pixel array" (quote nil)) :storemode :external :draw-params (quote (p 0 0 100 100)) :extraobjs nil) nil nil (pairlis (quote (winsize winpos)) (list (om-make-point 1164 816) (om-make-point 10 40))) t nil nil t) (om-load-editor-box1 "PICTURE 4" (quote picture) (quote ((om-load-inputfun (quote input-funbox) "object" "SELF" nil) (om-load-inputfun (quote input-funbox) "main background: external picture pathname or RGB array" "BACKGROUND" nil) (om-load-inputfun (quote input-funbox) "list of vectorial graphics" "GRAPHICS" nil))) (om-make-point 403 342) (om-make-point 165 81) (make-instance (quote picture) :name "internal pixel array" :source (quote nil) :pict-pathname (restore-pict-path (restore-path nil)) :thepict (om-get-picture "internal pixel array" (quote nil)) :storemode :external :draw-params (quote (p 0 0 100 100)) :extraobjs nil) nil nil (pairlis (quote (winsize winpos)) (list (om-make-point 1164 816) (om-make-point 10 40))) t nil nil t) (om-load-boxcall (quote bastype) "list" (quote list) (quote nil) (om-make-point 441 268) (om-make-point 91 56) (list (list 1.0 0.3 0.7) (list 0.3 0.9 0.0) (list 0.3 0.9 1.0)) "((1.0 0.3 0.7)$(0.3 0.9 0.0)$(0.3 0.9 1.0))" nil) (om-load-boxcomment "comment" (om-make-point 170 30) (quote "A [3x3] Gray level pixmap") nil (om-make-point 410 238) nil (om-make-color 0 0 0) (om-make-font "Verdana" 12 :family "Verdana" :style (quote (:italic)) :mode (quote nil))) (om-load-boxcomment "comment" (om-make-point 138 30) (quote "A [3x3] RGBa pixmap") nil (om-make-point 126 237) nil (om-make-color 0 0 0) (om-make-font "Verdana" 12 :family "Verdana" :style (quote (:italic)) :mode (quote nil))) (om-load-boxcall (quote bastype) "list" (quote list) (quote nil) (om-make-point 125 272) (om-make-point 220 56) (list (list (list 1 0 0 1) (list 0 1 0 1) (list 0 0 1 1)) (list (list 1 0.6 1 1) (list 0 1 1 1) (list 0 0.4 1 1)) (list (list 1 0 0.2 0.5) (list 0 1 1 1) (list 1 0.6 1 1))) "(((1 0 0 1) (0 1 0 1) (0 0 1 1))$((1 0.6 1 1) (0 1 1 1) (0 0.4 1 1))$((1 0 0.2 0.5) (0 1 1 1) (1 0.6 1 1)))" nil) (om-load-boxcomment "comment 7" (om-make-point 391 120) (quote "PICTURES can be created by wrinting or computing pixel arrays.$$Pixels can be specified as$- RGBa list$- RGB list$- Gray level value [0.0 - 1.0]$- Bit [0/1]") "" (om-make-point 33 80) nil (om-make-color 0 0 0) (om-make-font "Verdana" 12 :family "Verdana" :style (quote (:plain)) :mode (quote nil))) (om-load-editor-box1 "PICTURE 4" (quote picture) (quote ((om-load-inputfun (quote input-funbox) "object" "SELF" nil) (om-load-inputfun (quote input-funbox) "main background: external picture pathname or RGB array" "BACKGROUND" nil) (om-load-inputfun (quote input-funbox) "list of vectorial graphics" "GRAPHICS" nil))) (om-make-point 151 348) (om-make-point 165 81) (make-instance (quote picture) :name "internal pixel array" :source (quote nil) :pict-pathname (restore-pict-path (restore-path nil)) :thepict (om-get-picture "internal pixel array" (quote nil)) :storemode :external :draw-params (quote (p 0 0 100 100)) :extraobjs nil) nil nil (pairlis (quote (winsize winpos)) (list (om-make-point 1164 816) (om-make-point 10 40))) t nil nil t) (om-load-boxcomment "comment 2" (om-make-point 280 36) (quote "Creating pixel arrays (pixmaps)") "" (om-make-point 280 34) nil (om-make-color 0 0 0) (om-make-font "Verdana" 14.0 :family "Verdana" :style (quote (:bold)) :mode (quote nil))))) (quote ((1 0 2 1 nil 0) (4 0 3 1 nil 0) (7 0 9 1 nil 0))) nil 6.050101))
